<svg width="72" height="72" viewBox="0 0 72 72" fill="none" xmlns="http://www.w3.org/2000/svg">
<rect width="40" height="40" transform="translate(32 32)" fill="#F8D307"/>
<path d="M60 48H57V44H43C41.9 44 41 44.9 41 46V57H43C43 58.66 44.34 60 46 60C47.66 60 49 58.66 49 57H55C55 58.66 56.34 60 58 60C59.66 60 61 58.66 61 57H63V52L60 48ZM46 58.5C45.17 58.5 44.5 57.83 44.5 57C44.5 56.17 45.17 55.5 46 55.5C46.83 55.5 47.5 56.17 47.5 57C47.5 57.83 46.83 58.5 46 58.5ZM59.5 49.5L61.46 52H57V49.5H59.5ZM58 58.5C57.17 58.5 56.5 57.83 56.5 57C56.5 56.17 57.17 55.5 58 55.5C58.83 55.5 59.5 56.17 59.5 57C59.5 57.83 58.83 58.5 58 58.5Z" fill="white"/>
<path opacity="0.16" d="M40 0L72 32H32L0 0H40Z" fill="#F9DC38"/>
<path d="M0 40L32 72V32L0 0V40Z" fill="#F8D307" fill-opacity="0.4"/>
</svg>
