<svg width="72" height="72" viewBox="0 0 72 72" fill="none" xmlns="http://www.w3.org/2000/svg">
<rect width="40" height="40" transform="translate(32 32)" fill="#F8D307"/>
<path d="M56.582 53.9842C56.3338 53.8602 55.1099 53.2601 54.8818 53.178C54.6537 53.095 54.4879 53.054 54.3221 53.3021C54.1563 53.5491 53.6791 54.1082 53.5334 54.2733C53.3887 54.4383 53.243 54.4583 52.9948 54.3343C52.2613 54.0436 51.5843 53.628 50.9942 53.106C50.4499 52.6052 49.9832 52.0268 49.6095 51.3896C49.4648 51.1416 49.5945 51.0076 49.719 50.8845C49.8306 50.7735 49.9682 50.5955 50.0918 50.4504C50.1942 50.3252 50.2781 50.1861 50.341 50.0373C50.3741 49.969 50.3896 49.8934 50.3859 49.8176C50.3822 49.7418 50.3595 49.6681 50.3199 49.6032C50.2576 49.4792 49.7602 48.2599 49.5533 47.7638C49.3513 47.2817 49.1463 47.3467 48.9926 47.3387C48.8479 47.3317 48.6821 47.3297 48.5163 47.3297C48.3902 47.3332 48.2661 47.3627 48.152 47.4162C48.0379 47.4697 47.9361 47.5462 47.8531 47.6408C47.5718 47.906 47.349 48.2266 47.199 48.5822C47.049 48.9378 46.9751 49.3206 46.9819 49.7063C47.0626 50.6407 47.4157 51.5314 47.9978 52.2688C49.0648 53.8612 50.5296 55.15 52.2482 56.0087C52.7118 56.2069 53.1853 56.3812 53.667 56.5308C54.1748 56.6842 54.7116 56.7175 55.2345 56.6278C55.5809 56.558 55.9089 56.4174 56.1979 56.2149C56.4869 56.0124 56.7306 55.7525 56.9136 55.4515C57.0768 55.0814 57.1271 54.6717 57.0583 54.2733C56.997 54.1693 56.8312 54.1082 56.582 53.9842ZM59.086 44.9032C57.3778 43.2032 55.1071 42.179 52.6967 42.0213C50.2864 41.8637 47.9006 42.5833 45.9836 44.0463C44.0666 45.5092 42.749 47.6157 42.276 49.9737C41.8031 52.3316 42.2071 54.7803 43.4128 56.8639L42 62L47.2793 60.6227C48.7395 61.4141 50.3756 61.8288 52.0382 61.829H52.0422C54.0117 61.828 55.9368 61.2459 57.5742 60.1563C59.2115 59.0667 60.4877 57.5185 61.2415 55.7072C61.9953 53.8959 62.1928 51.9029 61.8092 49.9799C61.4255 48.0569 60.4779 46.2903 59.086 44.9032V44.9032ZM56.4403 58.8953C55.1221 59.7178 53.5979 60.1542 52.0422 60.1546H52.0382C50.556 60.1545 49.1011 59.7575 47.826 59.0053L47.5235 58.8273L44.3905 59.6455L45.2265 56.6048L45.0305 56.2927C44.1609 54.9123 43.722 53.3061 43.7694 51.6774C43.8168 50.0486 44.3483 48.4704 45.2967 47.1424C46.2452 45.8143 47.5679 44.796 49.0977 44.2162C50.6275 43.6365 52.2957 43.5213 53.8912 43.8853C55.4868 44.2492 56.9381 45.0759 58.0617 46.2609C59.1852 47.4459 59.9305 48.9359 60.2034 50.5426C60.4762 52.1492 60.2643 53.8003 59.5945 55.2871C58.9247 56.7738 57.827 58.0295 56.4403 58.8953Z" fill="white"/>
<path opacity="0.16" d="M40 0L72 32H32L0 0H40Z" fill="#F9DC38"/>
<path d="M0 40L32 72V32L0 0V40Z" fill="#F8D307" fill-opacity="0.4"/>
</svg>
