<svg width="72" height="72" viewBox="0 0 72 72" fill="none" xmlns="http://www.w3.org/2000/svg">
<rect width="40" height="40" transform="translate(32 32)" fill="#F8D307"/>
<path d="M60.01 55.38C58.78 55.38 57.59 55.18 56.48 54.82C56.13 54.7 55.74 54.79 55.47 55.06L53.9 57.03C51.07 55.68 48.42 53.13 47.01 50.2L48.96 48.54C49.23 48.26 49.31 47.87 49.2 47.52C48.83 46.41 48.64 45.22 48.64 43.99C48.64 43.45 48.19 43 47.65 43H44.19C43.65 43 43 43.24 43 43.99C43 53.28 50.73 61 60.01 61C60.72 61 61 60.37 61 59.82V56.37C61 55.83 60.55 55.38 60.01 55.38Z" fill="white"/>
<path opacity="0.16" d="M40 0L72 32H32L0 0H40Z" fill="#F9DC38"/>
<path d="M0 40L32 72V32L0 0V40Z" fill="#F8D307" fill-opacity="0.4"/>
</svg>
