<svg width="72" height="72" viewBox="0 0 72 72" fill="none" xmlns="http://www.w3.org/2000/svg">
<rect width="40" height="40" transform="translate(32 32)" fill="#F8D307"/>
<path d="M63 52.5L60.56 49.71L60.9 46.02L57.29 45.2L55.4 42L52 43.46L48.6 42L46.71 45.19L43.1 46L43.44 49.7L41 52.5L43.44 55.29L43.1 58.99L46.71 59.81L48.6 63L52 61.53L55.4 62.99L57.29 59.8L60.9 58.98L60.56 55.29L63 52.5ZM50.09 57.22L46.29 53.41L47.77 51.93L50.09 54.26L55.94 48.39L57.42 49.87L50.09 57.22Z" fill="white"/>
<path opacity="0.16" d="M40 0L72 32H32L0 0H40Z" fill="#F9DC38"/>
<path d="M0 40L32 72V32L0 0V40Z" fill="#F8D307" fill-opacity="0.4"/>
</svg>
